<svg width="276" height="276" viewBox="0 0 276 276" fill="none" xmlns="http://www.w3.org/2000/svg">
<rect y="135.818" width="192" height="197" transform="rotate(-45.0226 0 135.818)" fill="url(#paint0_linear_4_4)"/>
<rect x="42" y="38" width="192" height="197" fill="url(#paint1_linear_4_4)"/>
<rect x="42" y="38" width="192" height="197" fill="url(#paint2_linear_4_4)"/>
<path d="M104.774 138.189C104.49 135.324 103.271 133.099 101.116 131.513C98.9621 129.927 96.0384 129.134 92.3452 129.134C89.8357 129.134 87.7169 129.489 85.9886 130.199C84.2604 130.885 82.9347 131.844 82.0114 133.075C81.1117 134.306 80.6619 135.703 80.6619 137.266C80.6146 138.568 80.8868 139.704 81.4787 140.675C82.0942 141.645 82.9347 142.486 84 143.196C85.0653 143.883 86.2964 144.486 87.6932 145.007C89.09 145.504 90.5814 145.93 92.1676 146.286L98.7017 147.848C101.874 148.558 104.786 149.505 107.438 150.689C110.089 151.873 112.385 153.329 114.327 155.057C116.268 156.785 117.771 158.821 118.837 161.165C119.926 163.509 120.482 166.196 120.506 169.226C120.482 173.677 119.346 177.536 117.097 180.803C114.871 184.046 111.652 186.567 107.438 188.366C103.247 190.142 98.1927 191.03 92.2741 191.03C86.4029 191.03 81.2893 190.13 76.9332 188.331C72.6009 186.532 69.2154 183.868 66.777 180.341C64.3622 176.79 63.0956 172.398 62.9773 167.166H77.8565C78.0223 169.605 78.7206 171.641 79.9517 173.274C81.2064 174.884 82.8755 176.103 84.9588 176.932C87.0658 177.737 89.4451 178.139 92.0966 178.139C94.7008 178.139 96.9616 177.76 98.8793 177.003C100.821 176.245 102.324 175.192 103.389 173.842C104.455 172.493 104.987 170.942 104.987 169.19C104.987 167.557 104.502 166.184 103.531 165.071C102.584 163.958 101.188 163.011 99.3409 162.23C97.518 161.449 95.2808 160.739 92.6293 160.099L84.7102 158.111C78.5786 156.619 73.7372 154.287 70.1861 151.115C66.6349 147.943 64.8712 143.67 64.8949 138.295C64.8712 133.892 66.0431 130.045 68.4105 126.754C70.8016 123.464 74.0805 120.895 78.2472 119.048C82.4138 117.202 87.1487 116.278 92.4517 116.278C97.8494 116.278 102.561 117.202 106.585 119.048C110.634 120.895 113.782 123.464 116.031 126.754C118.28 130.045 119.44 133.857 119.511 138.189H104.774ZM128.078 129.95V117.273H187.809V129.95H165.543V190H150.344V129.95H128.078Z" fill="url(#paint3_linear_4_4)"/>
<path d="M191.75 107.1C191.383 104.933 190.417 102.6 188.85 100.1C187.283 97.5667 185.05 95.2167 182.15 93.05C179.283 90.8833 176.417 89.5 173.55 88.9V86.8C176.383 86.1333 179.1 84.9 181.7 83.1C184.333 81.2667 186.533 79.0667 188.3 76.5C190.1 73.8667 191.25 71.2667 191.75 68.7H193.85C194.15 70.3667 194.75 72.0833 195.65 73.85C196.55 75.5833 197.7 77.25 199.1 78.85C200.533 80.4167 202.133 81.8333 203.9 83.1C206.533 84.9667 209.217 86.2 211.95 86.8V88.9C210.117 89.2667 208.217 90.0167 206.25 91.15C204.317 92.2833 202.517 93.6333 200.85 95.2C199.183 96.7333 197.817 98.35 196.75 100.05C195.183 102.55 194.217 104.9 193.85 107.1H191.75Z" fill="url(#paint4_linear_4_4)"/>
<defs>
<linearGradient id="paint0_linear_4_4" x1="163.034" y1="250.078" x2="28.2897" y2="221.775" gradientUnits="userSpaceOnUse">
<stop stop-color="#0C3007"/>
<stop offset="0.943388" stop-color="#041509"/>
</linearGradient>
<linearGradient id="paint1_linear_4_4" x1="205.034" y1="152.26" x2="70.2897" y2="123.957" gradientUnits="userSpaceOnUse">
<stop stop-color="#0C3007"/>
<stop offset="0.943388" stop-color="#041509"/>
</linearGradient>
<linearGradient id="paint2_linear_4_4" x1="205.034" y1="152.26" x2="70.2897" y2="123.957" gradientUnits="userSpaceOnUse">
<stop stop-color="#0C3007"/>
<stop offset="0.943388" stop-color="#03230C"/>
</linearGradient>
<linearGradient id="paint3_linear_4_4" x1="125.5" y1="93" x2="125.5" y2="214" gradientUnits="userSpaceOnUse">
<stop stop-color="white"/>
<stop offset="1" stop-color="#00FF22"/>
</linearGradient>
<linearGradient id="paint4_linear_4_4" x1="193" y1="56" x2="193" y2="117" gradientUnits="userSpaceOnUse">
<stop stop-color="white"/>
<stop offset="1" stop-color="#1AFF4B"/>
</linearGradient>
</defs>
</svg>
